<svg width="11" height="12" viewBox="0 0 11 12" fill="none" xmlns="http://www.w3.org/2000/svg">
<path opacity="0.2" d="M5.5 10.125C7.77817 10.125 9.625 8.27817 9.625 6C9.625 3.72183 7.77817 1.875 5.5 1.875C3.22183 1.875 1.375 3.72183 1.375 6C1.375 8.27817 3.22183 10.125 5.5 10.125Z" fill="white"/>
<path d="M5.5 10.125C7.77817 10.125 9.625 8.27817 9.625 6C9.625 3.72183 7.77817 1.875 5.5 1.875C3.22183 1.875 1.375 3.72183 1.375 6C1.375 8.27817 3.22183 10.125 5.5 10.125Z" stroke="white" stroke-linecap="round" stroke-linejoin="round"/>
<path d="M6.875 7.03125C6.65856 7.31984 6.3568 7.53301 6.01248 7.64057C5.66815 7.74813 5.29871 7.74462 4.95648 7.63055C4.61426 7.51647 4.3166 7.29761 4.10568 7.00497C3.89475 6.71233 3.78125 6.36074 3.78125 6C3.78125 5.63926 3.89475 5.28767 4.10568 4.99503C4.3166 4.70239 4.61426 4.48353 4.95648 4.36945C5.29871 4.25538 5.66815 4.25187 6.01248 4.35943C6.3568 4.46699 6.65856 4.68016 6.875 4.96875" stroke="white" stroke-linecap="round" stroke-linejoin="round"/>
</svg>
