<svg width="16" height="25" viewBox="0 0 16 25" fill="none" xmlns="http://www.w3.org/2000/svg">
<path d="M5.43186 10.384H9.75919V5.2914C9.75919 3.86915 9.12666 3.15037 7.83279 3.15037H7.34399C6.06452 3.15037 5.41759 3.86915 5.41759 5.2914V10.384H5.43186ZM5.43186 13.6414L5.44626 19.2387C5.44626 20.661 6.09319 21.3644 7.37279 21.3644H7.93346C9.21292 21.3644 9.85986 20.661 9.85986 19.2387V16.486H12.8071V19.1011C12.8071 22.6949 11.1681 24.5301 7.91906 24.5301H7.27212C4.02306 24.5301 2.38411 22.7101 2.38411 19.5293V5.84196C2.38411 1.81988 4.02306 0 7.27212 0H7.91906C11.1681 0 12.8071 1.81988 12.8071 5.41375L12.7927 13.6261H5.43186V13.6414Z" fill="#111111"/>
</svg>
