<svg width="236" height="48" viewBox="0 0 236 48" fill="none" xmlns="http://www.w3.org/2000/svg">
<path d="M0 24C0 10.7452 10.7452 0 24 0H113.5H141.122C152.891 0 163.886 5.86311 170.444 15.6355C171.045 16.5313 171.858 17.2649 172.811 17.7712L175.103 18.9898C178.59 20.8427 182.814 20.624 186.09 18.4209C187.481 17.4855 188.645 16.2505 189.497 14.8066L190.975 12.3004C195.121 5.27025 202.595 0.870811 210.754 0.658126L212.008 0.625423C225.156 0.28268 236 10.8476 236 24C236 37.1524 225.156 47.7173 212.008 47.3746L210.815 47.3435C202.618 47.1298 195.109 42.7097 190.944 35.6467L189.482 33.1683C188.64 31.7409 187.489 30.52 186.114 29.5953C182.823 27.3822 178.58 27.1625 175.078 29.0239L172.811 30.2288C171.858 30.7351 171.045 31.4687 170.444 32.3645C163.886 42.1369 152.891 48 141.122 48H113.5H24C10.7452 48 0 37.2548 0 24Z" fill="#FFE841"/>
<path d="M208.562 26.7812L217.75 17.5938" stroke="#111111" stroke-width="1.5" stroke-linecap="round" stroke-linejoin="round"/>
<path d="M217.75 25.7969V17.5938H209.547" stroke="#111111" stroke-width="1.5" stroke-linecap="round" stroke-linejoin="round"/>
<path d="M205.281 30.7188H219.719" stroke="#111111" stroke-width="1.5" stroke-linecap="round" stroke-linejoin="round"/>
</svg>
