<svg width="128" height="36" viewBox="0 0 128 36" fill="none" xmlns="http://www.w3.org/2000/svg">
<path d="M38.7387 5.43285C38.7555 5.44895 38.7756 5.46149 38.7977 5.46966C38.8195 5.47771 38.843 5.48086 38.8662 5.47887H41.2338V3.65004C41.2362 3.6273 41.2333 3.60433 41.2252 3.58285C41.2167 3.56102 41.2033 3.54125 41.1862 3.52486C41.1694 3.5085 41.1491 3.49589 41.1267 3.48794C41.1044 3.47999 41.0805 3.47688 41.0567 3.47884H38.6977L38.6911 5.30951C38.6897 5.33237 38.6933 5.35525 38.7015 5.3767C38.7098 5.39769 38.7224 5.4168 38.7387 5.43285Z" fill="white"/>
<path d="M39.0509 15.5149C39.0481 15.5385 39.051 15.5625 39.0595 15.5848C39.068 15.6069 39.0813 15.627 39.0985 15.6437C39.1148 15.66 39.1346 15.6726 39.1566 15.6805C39.1788 15.6887 39.2023 15.6927 39.2261 15.6925H40.9939V7.54883C40.9955 7.53169 40.9932 7.51441 40.9872 7.49821C40.9819 7.48193 40.9731 7.46689 40.9615 7.45403C40.9506 7.43391 40.9332 7.41776 40.912 7.40801C40.8993 7.39695 40.8844 7.3885 40.8682 7.38316C40.8517 7.37787 40.8342 7.37568 40.8168 7.37671H37.6525V8.89629C37.6543 8.94242 37.6717 8.9867 37.702 9.02239C37.7194 9.03732 37.7393 9.04916 37.761 9.05736C37.783 9.06476 37.8062 9.0682 37.8295 9.06749H39.0509V15.5149Z" fill="white"/>
<path d="M45.7966 10.1657C45.9153 10.0376 46.0425 9.91706 46.1773 9.80486C46.379 9.63615 46.5963 9.48579 46.8266 9.35571C47.0387 9.23981 47.2656 9.15131 47.5015 9.09248C47.7045 9.03355 47.915 9.00256 48.127 9.00044C48.2548 8.98966 48.3835 9.00471 48.5049 9.04465C48.6264 9.08458 48.7379 9.14851 48.8324 9.23238C48.9205 9.33244 48.9873 9.44834 49.029 9.57344C49.0706 9.69854 49.0863 9.83036 49.0751 9.96133V15.515C49.073 15.5464 49.0782 15.5779 49.0904 15.6071L49.1551 15.6696C49.1855 15.6806 49.2178 15.6862 49.2503 15.6862H51.0152L51.0238 15.6696V9.55636C51.0286 9.22372 50.9742 8.89277 50.8629 8.57798C50.7645 8.30403 50.6115 8.05137 50.4126 7.83429C50.2229 7.61949 49.9803 7.45427 49.7072 7.35384C49.4049 7.2362 49.0811 7.17861 48.7553 7.18449C48.4014 7.18522 48.0514 7.25634 47.7271 7.39342C47.3998 7.52021 47.0962 7.69806 46.8285 7.91989C46.5506 8.15995 46.3029 8.43089 46.0907 8.72708H45.7918V7.54161C45.7934 7.52477 45.7911 7.50779 45.7851 7.4919C45.78 7.47554 45.7712 7.46046 45.7594 7.44773C45.7495 7.42757 45.7327 7.41133 45.7118 7.40171C45.6989 7.39045 45.6837 7.38198 45.6671 7.37685C45.6509 7.3715 45.6337 7.36931 45.6166 7.37041H43.8707V15.5886L43.9031 15.6512L43.9678 15.6825H45.7966V10.1657Z" fill="white"/>
<path d="M55.9616 15.4974C56.4367 15.6265 56.9285 15.6885 57.422 15.6815H58.7052C58.7292 15.6825 58.7532 15.6787 58.7756 15.6705C58.7978 15.662 58.8182 15.6495 58.8356 15.6337C58.8517 15.6173 58.8641 15.5979 58.8718 15.5766C58.8803 15.5555 58.8842 15.5329 58.8832 15.5103V13.8987H57.5048C57.2728 13.9025 57.0411 13.8821 56.8136 13.838C56.6394 13.7947 56.4795 13.7092 56.3491 13.5895C56.1961 13.4498 56.0852 13.2726 56.0283 13.0768C55.9576 12.8087 55.9256 12.5324 55.9331 12.2558V9.12644H58.8842V7.54244C58.8858 7.51935 58.8825 7.49618 58.8746 7.47433C58.8664 7.45284 58.8534 7.43336 58.8366 7.41726C58.8198 7.40062 58.7993 7.38801 58.7766 7.38045C58.7541 7.37234 58.73 7.36919 58.7062 7.37124H55.9312V4.99846C55.9319 4.96983 55.9209 4.94207 55.9007 4.92114C55.8962 4.90655 55.888 4.89327 55.8769 4.88249C55.8654 4.87146 55.8514 4.86325 55.836 4.85856C55.8141 4.83942 55.7855 4.82891 55.756 4.8291H53.9901V7.37124H52.5574V8.95341C52.5569 8.97508 52.5618 8.99654 52.5717 9.016L52.605 9.07674L52.6697 9.10804C52.6898 9.11813 52.7119 9.12379 52.7345 9.1246H53.9901V12.4104C53.976 12.9147 54.049 13.4177 54.2062 13.8987C54.346 14.2822 54.5765 14.6289 54.8793 14.9111C55.1951 15.1756 55.5634 15.3751 55.9616 15.4974Z" fill="white"/>
<path d="M66.4456 15.7543C66.8005 15.7158 67.151 15.6458 67.4927 15.5454C67.7031 15.4932 67.9 15.3992 68.0706 15.2692C68.0888 15.2508 68.1048 15.2305 68.1182 15.2085C68.1285 15.1891 68.1344 15.1677 68.1353 15.1459V13.746H67.8497C67.5976 13.8416 67.3406 13.9246 67.0796 13.9945C66.8065 14.0707 66.5281 14.1279 66.2466 14.1657C65.9058 14.2089 65.5622 14.2292 65.2185 14.2264C64.8608 14.232 64.5041 14.1905 64.158 14.1031C63.8803 14.0318 63.626 13.893 63.4193 13.7C63.2757 13.5477 63.1662 13.3685 63.0975 13.1735C63.0195 12.927 62.9823 12.6701 62.9871 12.4123V12.0552H68.1553C68.183 12.0554 68.2104 12.0495 68.2353 12.0377C68.2487 12.0349 68.2614 12.0292 68.2724 12.0212C68.284 12.0137 68.2934 12.0036 68.3 11.9917C68.3112 11.9622 68.317 11.9311 68.3171 11.8997V10.659C68.3382 10.0112 68.1829 9.36945 67.8669 8.79793C67.5799 8.29336 67.1437 7.88313 66.6141 7.61982C66.0401 7.33098 65.3999 7.18723 64.753 7.20196C64.2446 7.19951 63.7395 7.28075 63.2593 7.44218C62.8205 7.59065 62.4166 7.82219 62.0713 8.12327C61.7331 8.43168 61.47 8.80895 61.3012 9.22775C61.1212 9.69534 61.0337 10.1914 61.0432 10.6903V12.4105C61.0353 12.9108 61.1281 13.4078 61.3164 13.8739C61.49 14.2862 61.7563 14.6559 62.0961 14.9563C62.4674 15.2709 62.9054 15.5034 63.3793 15.6374C63.966 15.7878 64.5716 15.8581 65.1785 15.8463C65.6027 15.8469 66.0263 15.8161 66.4456 15.7543ZM63.4259 9.21947C63.6048 9.06584 63.8135 8.94822 64.0399 8.87347C64.2662 8.79872 64.5058 8.76835 64.7444 8.78412C64.9881 8.77922 65.2311 8.81025 65.4651 8.87616C65.6594 8.9318 65.8364 9.03333 65.9801 9.17161C66.1392 9.33303 66.2552 9.52954 66.318 9.74409C66.3971 10.0216 66.435 10.3086 66.4303 10.5964V10.8605H62.9785V10.6277C62.9785 9.96499 63.1286 9.49467 63.4288 9.21671L63.4259 9.21947Z" fill="white"/>
<path d="M73.3293 9.8684C73.5441 9.64404 73.7997 9.45967 74.0833 9.32444C74.3652 9.19899 74.6725 9.1361 74.9829 9.14036C75.2548 9.13759 75.5256 9.1742 75.7863 9.24897H76.0719V7.55636C76.0757 7.5175 76.0641 7.47871 76.0395 7.44775C76.0228 7.41016 75.995 7.37815 75.9596 7.35571C75.8787 7.3151 75.793 7.28419 75.7044 7.26367C75.5627 7.23046 75.4171 7.21499 75.2713 7.21765C74.9675 7.21207 74.666 7.27049 74.3879 7.38884C74.1328 7.51376 73.9109 7.69393 73.7396 7.91531C73.5191 8.20024 73.3407 8.51341 73.2093 8.84583H72.9142V7.54163C72.9162 7.52486 72.9142 7.50788 72.9085 7.49193C72.9027 7.47567 72.8936 7.46066 72.8819 7.44775C72.8723 7.42732 72.8554 7.41095 72.8343 7.40173C72.8216 7.39067 72.8067 7.38222 72.7905 7.37688C72.7739 7.37159 72.7565 7.3694 72.7391 7.37044H70.8608V15.5887L70.8932 15.6513L70.956 15.6826H72.9142V10.3608C73.0494 10.1961 73.177 10.0239 73.3293 9.8684Z" fill="white"/>
<path d="M84.6576 14.024C84.6007 14.0085 84.5502 13.9764 84.5129 13.9319C84.4581 13.888 84.4186 13.8289 84.3997 13.7626C84.3882 13.6753 84.3825 13.5874 84.3825 13.4994V10.3516C84.3929 9.86344 84.314 9.37735 84.1493 8.91578C84.0296 8.53886 83.805 8.20103 83.5 7.93923C83.1644 7.67286 82.7684 7.48681 82.3444 7.3962C81.799 7.26333 81.2378 7.20142 80.6756 7.21212C80.2669 7.21144 79.8588 7.24222 79.4552 7.30416C79.1018 7.35192 78.752 7.42171 78.408 7.51309C78.2249 7.55271 78.0505 7.62345 77.893 7.72202C77.8775 7.74032 77.8665 7.76169 77.8606 7.78461C77.8489 7.81392 77.8437 7.84528 77.8454 7.87665V9.34008H78.1176C78.3914 9.25354 78.6706 9.18376 78.9535 9.13115C79.2221 9.06797 79.4956 9.0258 79.7712 9.00505C80.0703 8.97362 80.3709 8.95825 80.6718 8.95903C81.0181 8.94784 81.3641 8.98946 81.697 9.08237C81.814 9.11027 81.924 9.16035 82.0207 9.22972C82.1175 9.29908 82.199 9.38634 82.2606 9.48642C82.3908 9.72459 82.452 9.99236 82.4377 10.2614V10.8698H79.7303C79.3734 10.8656 79.0187 10.9236 78.6831 11.041C78.3866 11.1364 78.1135 11.2895 77.8806 11.491C77.6616 11.6837 77.4913 11.9224 77.3827 12.1887C77.2605 12.4809 77.2009 12.794 77.2076 13.1091V13.6356C77.1965 14.0405 77.295 14.4412 77.4932 14.798C77.6931 15.1255 77.9822 15.3936 78.329 15.573C78.7267 15.7658 79.1675 15.8607 79.6122 15.8491C79.9946 15.8536 80.375 15.7957 80.7374 15.6779C81.0642 15.5739 81.3651 15.4052 81.6209 15.1828C81.8815 14.9501 82.0938 14.6714 82.2463 14.3618H82.4976C82.514 14.444 82.5346 14.5254 82.5595 14.6057C82.6483 14.8259 82.7843 15.0254 82.9585 15.1912C83.1328 15.357 83.3413 15.4852 83.5705 15.5675C83.8177 15.6548 84.0794 15.6973 84.3425 15.6927H85.1612C85.1846 15.6937 85.208 15.6899 85.2298 15.6816C85.2514 15.6735 85.271 15.6612 85.2874 15.6453C85.3038 15.6295 85.3166 15.6105 85.325 15.5896C85.3335 15.5685 85.3374 15.5459 85.3364 15.5233V14.0599H84.8861C84.8085 14.0597 84.7314 14.0476 84.6576 14.024ZM81.8551 13.7064C81.5777 13.8645 81.2809 13.9882 80.9716 14.0746C80.6779 14.1484 80.3755 14.1849 80.072 14.1832C79.8226 14.2007 79.5756 14.1261 79.3809 13.9743C79.3059 13.8941 79.2483 13.8002 79.2115 13.6982C79.1742 13.597 79.1583 13.4897 79.1648 13.3825V12.8615C79.1641 12.7565 79.1808 12.6521 79.2143 12.5523C79.2492 12.4594 79.304 12.3747 79.3752 12.3038C79.4544 12.2253 79.5526 12.1671 79.6608 12.1344C79.7953 12.0902 79.9367 12.069 80.0787 12.0718H82.4396V13.2683C82.2598 13.4307 82.0654 13.5773 81.8589 13.7064H81.8551Z" fill="white"/>
<path d="M93.0207 7.67414C92.9205 7.57165 92.7919 7.49913 92.6504 7.46521C92.4113 7.38058 92.1642 7.31892 91.9126 7.28113C91.5622 7.22505 91.2073 7.19918 90.8521 7.20382C90.1305 7.18723 89.4161 7.34543 88.774 7.66402C88.1849 7.96617 87.6954 8.42221 87.3613 8.98019C87.0169 9.58719 86.8451 10.2716 86.8634 10.9636V12.174C86.856 12.706 86.9433 13.2352 87.1214 13.7386C87.2922 14.1779 87.561 14.5754 87.9086 14.9029C88.2766 15.2216 88.7081 15.4641 89.1766 15.6153C89.7168 15.777 90.2801 15.8549 90.8454 15.8464C91.2079 15.8519 91.5701 15.8261 91.9278 15.769C92.175 15.7408 92.4177 15.6833 92.6504 15.5978C92.7899 15.5522 92.9191 15.4813 93.0311 15.3889C93.05 15.373 93.0617 15.3505 93.0635 15.3263C93.0737 15.3076 93.0789 15.2867 93.0787 15.2656V13.7009H92.7932C92.6052 13.7812 92.4126 13.851 92.2163 13.9098C92.0099 13.9643 91.8 14.0055 91.588 14.0332C91.3435 14.0655 91.097 14.0809 90.8502 14.0792C90.5736 14.0839 90.2979 14.0479 90.0325 13.9724C89.8052 13.9036 89.5968 13.7866 89.4223 13.63C89.2336 13.4557 89.0904 13.2405 89.0043 13.0023C88.9011 12.7079 88.8518 12.3983 88.8587 12.0875V11.0161C88.8424 10.6148 88.9256 10.2156 89.1014 9.8518C89.2502 9.56286 89.4926 9.32886 89.7916 9.18544C90.1229 9.03717 90.4853 8.96563 90.8502 8.9765C91.2068 8.97393 91.5626 9.01036 91.9107 9.08511C92.2147 9.15303 92.5105 9.25175 92.7932 9.37964H93.0787V7.81496C93.0799 7.7884 93.0747 7.76195 93.0635 7.73765C93.0683 7.71556 93.0511 7.69163 93.0207 7.67414Z" fill="white"/>
<path d="M98.8686 13.838C98.6933 13.7953 98.5323 13.7097 98.4012 13.5895C98.2485 13.4496 98.1376 13.2725 98.0804 13.0768C98.0097 12.8087 97.9777 12.5324 97.9852 12.2558V9.12644H100.936V7.54244C100.938 7.51958 100.934 7.49671 100.926 7.47525C100.918 7.45371 100.905 7.43399 100.889 7.41726C100.853 7.38599 100.807 7.36945 100.759 7.37124H97.9852V4.99846C97.9863 4.98434 97.984 4.97017 97.9785 4.95704C97.9732 4.94363 97.9651 4.93141 97.9547 4.92114C97.9504 4.90645 97.9422 4.89312 97.9309 4.88249C97.9194 4.87146 97.9054 4.86325 97.89 4.85856C97.8681 4.83942 97.8395 4.82891 97.81 4.8291H96.0441V7.37124H94.6161V8.95341C94.617 8.97502 94.6222 8.99627 94.6314 9.016L94.6637 9.07674L94.7285 9.10804C94.7485 9.11813 94.7706 9.12379 94.7932 9.1246H96.0489V12.4104C96.0361 12.9146 96.1091 13.4174 96.265 13.8987C96.4047 14.2822 96.6352 14.6289 96.938 14.9111C97.2536 15.1766 97.6219 15.377 98.0204 15.5002C98.4957 15.6294 98.9879 15.6914 99.4816 15.6843H100.765C100.789 15.6853 100.812 15.6815 100.834 15.6732C100.857 15.665 100.877 15.6524 100.894 15.6364C100.91 15.6199 100.923 15.6005 100.931 15.5794C100.94 15.5582 100.943 15.5356 100.942 15.5131V13.8987H99.5654C99.3315 13.9029 99.0979 13.8826 98.8686 13.838Z" fill="white"/>
<path d="M105.872 3.52479C105.837 3.49477 105.792 3.47838 105.745 3.47877H103.383V5.31036C103.382 5.33297 103.386 5.35553 103.394 5.37663C103.402 5.39774 103.414 5.41693 103.43 5.43277C103.448 5.44872 103.468 5.46122 103.49 5.46958C103.513 5.4772 103.537 5.48033 103.561 5.47879H105.92V3.64996C105.92 3.62714 105.917 3.60437 105.909 3.58277C105.901 3.56137 105.888 3.54171 105.872 3.52479Z" fill="white"/>
<path d="M105.638 7.45495C105.628 7.43452 105.612 7.41815 105.59 7.40893C105.578 7.39746 105.562 7.38868 105.546 7.38316C105.529 7.37786 105.511 7.37568 105.493 7.37672H102.339V8.89629C102.341 8.94233 102.358 8.98661 102.388 9.02239C102.423 9.05304 102.469 9.06952 102.516 9.06841H103.736V15.5112C103.733 15.534 103.735 15.5572 103.742 15.5793C103.747 15.6024 103.759 15.6237 103.776 15.641C103.792 15.6583 103.813 15.671 103.837 15.6778C103.859 15.6861 103.883 15.6898 103.906 15.6888H105.672V7.54883C105.674 7.53169 105.672 7.51442 105.666 7.49821C105.66 7.48195 105.651 7.46716 105.638 7.45495Z" fill="white"/>
<path d="M115.775 7.41548C115.759 7.39958 115.739 7.38733 115.717 7.37958C115.695 7.37218 115.672 7.36875 115.649 7.36946H113.865C113.737 7.79376 113.609 8.21991 113.484 8.64237C113.359 9.06483 113.23 9.49466 113.103 9.93093C112.992 10.3672 112.862 10.8228 112.723 11.2959C112.583 11.769 112.46 12.2614 112.342 12.7593C112.224 13.2572 112.086 13.7837 111.941 14.3415H111.655C111.437 13.4106 111.22 12.5627 111.005 11.7975C110.776 11.0207 110.56 10.292 110.356 9.61155C110.152 8.93107 109.949 8.25949 109.747 7.5968C109.739 7.55322 109.723 7.51143 109.699 7.47347C109.68 7.44479 109.652 7.42284 109.619 7.41088C109.585 7.38984 109.546 7.37894 109.506 7.37958L109.539 7.3667H107.638L108.152 8.98016C108.333 9.51767 108.5 10.069 108.681 10.5918C108.863 11.1146 109.036 11.641 109.195 12.1565C109.355 12.6719 109.521 13.1772 109.692 13.676C109.864 14.1749 110.03 14.6627 110.19 15.1395C110.231 15.2613 110.279 15.3805 110.335 15.4966C110.373 15.5617 110.428 15.6152 110.496 15.6512C110.58 15.673 110.666 15.6836 110.753 15.6825H113.192C113.423 15.021 113.649 14.3544 113.868 13.6825C114.087 13.0106 114.303 12.3381 114.517 11.665C114.724 10.9826 114.941 10.3055 115.166 9.63364C115.391 8.96175 115.617 8.29507 115.842 7.63361C115.852 7.61451 115.857 7.59338 115.857 7.57195C115.857 7.55052 115.852 7.52939 115.842 7.51028C115.833 7.47152 115.81 7.43752 115.775 7.41548Z" fill="white"/>
<path d="M124.209 8.79597C123.923 8.29061 123.487 7.88012 122.956 7.61786C122.382 7.32902 121.742 7.18528 121.095 7.2C120.587 7.19808 120.082 7.2793 119.601 7.44022C119.162 7.58889 118.758 7.82041 118.412 8.12132C118.076 8.43069 117.813 8.8077 117.643 9.2258C117.465 9.69386 117.378 10.1896 117.385 10.6883V12.4085C117.377 12.9089 117.47 13.4059 117.658 13.872C117.835 14.2856 118.103 14.6562 118.446 14.9571C118.817 15.2719 119.256 15.5044 119.73 15.6382C120.316 15.7885 120.921 15.8588 121.527 15.8471C121.952 15.8478 122.376 15.817 122.796 15.7551C123.151 15.7166 123.502 15.6466 123.843 15.5462C124.054 15.4938 124.25 15.3998 124.421 15.2701C124.44 15.2522 124.457 15.2317 124.47 15.2093C124.481 15.1902 124.486 15.1686 124.486 15.1467V13.7459H124.2C123.947 13.8379 123.689 13.9244 123.427 13.9944C123.154 14.0705 122.876 14.1277 122.594 14.1656C122.254 14.2088 121.91 14.2291 121.566 14.2263C121.209 14.2319 120.852 14.1904 120.506 14.103C120.228 14.0315 119.974 13.8927 119.767 13.6999C119.623 13.5481 119.515 13.3687 119.448 13.1734C119.368 12.9272 119.33 12.6702 119.335 12.4122V12.0551H124.505C124.533 12.0554 124.56 12.0494 124.585 12.0376C124.598 12.0347 124.611 12.0291 124.622 12.0212C124.632 12.0133 124.641 12.0032 124.648 11.9916C124.659 11.9622 124.665 11.931 124.666 11.8996V10.6589C124.686 10.0098 124.528 9.36711 124.209 8.79597ZM122.781 10.8577H119.33V10.6276C119.33 9.96488 119.479 9.49455 119.778 9.21659C119.956 9.0628 120.165 8.94506 120.391 8.8703C120.618 8.79554 120.857 8.76526 121.096 8.78125C121.341 8.77646 121.585 8.80749 121.819 8.87329C122.013 8.92894 122.189 9.03051 122.332 9.16873C122.491 9.33016 122.607 9.52666 122.67 9.74122C122.75 10.0185 122.787 10.3057 122.781 10.5935V10.8577Z" fill="white"/>
<path d="M43.4509 20.405C43.434 20.3675 43.4062 20.3355 43.3709 20.313C43.2897 20.271 43.2029 20.24 43.1129 20.2209C42.9715 20.1859 42.8258 20.1695 42.6798 20.1722C42.3763 20.1678 42.0755 20.2262 41.7973 20.3434C41.5411 20.4675 41.3187 20.6481 41.1481 20.8707C40.9277 21.1554 40.7493 21.4683 40.6178 21.8003H40.3103V20.4961C40.3123 20.4794 40.3104 20.4625 40.3048 20.4466C40.2992 20.4307 40.29 20.4162 40.278 20.4041C40.2682 20.3832 40.2514 20.366 40.2304 20.3553C40.2039 20.3336 40.1698 20.3224 40.1352 20.324H38.256V28.5423L38.2893 28.6058L38.354 28.6371H40.3103V23.3245C40.4503 23.1552 40.5835 22.9803 40.7368 22.8229C40.9525 22.5993 41.2082 22.4153 41.4917 22.2799C41.7732 22.1541 42.0803 22.0911 42.3904 22.0958C42.5411 22.0947 42.6916 22.1052 42.8406 22.1271C42.9596 22.1462 43.0772 22.1723 43.1929 22.2053H43.4832V20.5136C43.4855 20.4942 43.4838 20.4745 43.4785 20.4556C43.4727 20.4372 43.4634 20.42 43.4509 20.405Z" fill="white"/>
<path d="M40.3122 28.6379H40.3104V28.6478L40.3122 28.6379Z" fill="white"/>
<path d="M52.0785 26.9786C52.0216 26.9631 51.9711 26.931 51.9338 26.8865C51.8788 26.843 51.8394 26.7837 51.8215 26.7172C51.8098 26.6299 51.8047 26.5419 51.8063 26.4539V23.3062C51.8158 22.818 51.7366 22.332 51.5721 21.8704C51.4521 21.4938 51.2276 21.1564 50.9229 20.8947C50.5861 20.6298 50.1906 20.4436 49.7672 20.3508C49.2212 20.2179 48.6594 20.156 48.0965 20.1667C47.6884 20.166 47.2809 20.1968 46.878 20.2587C46.5244 20.3056 46.1746 20.3754 45.8308 20.4677C45.6483 20.5073 45.4745 20.5781 45.3177 20.6766C45.3024 20.6954 45.2914 20.717 45.2853 20.7401C45.273 20.7693 45.2678 20.8008 45.2701 20.8322V22.2956H45.5423C45.8161 22.2091 46.0953 22.1393 46.3782 22.0867C46.6473 22.0221 46.9214 21.979 47.1978 21.9578C47.4963 21.9273 47.7963 21.9119 48.0965 21.9118C48.4439 21.8999 48.7911 21.9421 49.1246 22.037C49.2411 22.0647 49.3508 22.1144 49.4473 22.1833C49.5439 22.2522 49.6254 22.3388 49.6872 22.4383C49.8169 22.6769 49.8775 22.945 49.8624 23.2142V23.8244H47.155C46.7982 23.8186 46.4433 23.876 46.1078 23.9937C45.8115 24.0891 45.5384 24.2419 45.3053 24.4429C45.0865 24.6357 44.9162 24.8744 44.8074 25.1405C44.6854 25.4312 44.6248 25.7426 44.6294 26.0563V26.5828C44.6199 26.9887 44.7199 27.39 44.9198 27.7471C45.1195 28.0742 45.4087 28.3418 45.7556 28.5202C46.1529 28.7146 46.5937 28.8111 47.0388 28.801C47.4206 28.8047 47.8003 28.7466 48.1622 28.6288C48.4891 28.5257 48.7898 28.357 49.0446 28.1337C49.3065 27.9017 49.5195 27.6229 49.672 27.3127H49.9261C49.9425 27.3952 49.9631 27.477 49.988 27.5575C50.0794 27.7778 50.2157 27.9782 50.3888 28.1466C50.5643 28.308 50.7719 28.4332 50.999 28.5147C51.2458 28.6021 51.5073 28.6446 51.7701 28.6399H52.5878C52.6356 28.6417 52.6821 28.6251 52.7173 28.5939C52.7339 28.5774 52.7466 28.5576 52.7544 28.5359C52.7631 28.5145 52.7667 28.4916 52.7649 28.4687V27.0108H52.3146C52.2347 27.0121 52.155 27.0012 52.0785 26.9786ZM49.276 26.661C48.9996 26.8209 48.7025 26.9447 48.3925 27.0292C48.0994 27.1028 47.7977 27.1396 47.4948 27.1387C47.2458 27.1554 46.9994 27.0809 46.8046 26.9298C46.7296 26.8504 46.6717 26.7573 46.6345 26.656C46.5972 26.5547 46.5813 26.4472 46.5876 26.3398V25.8235C46.5857 25.718 46.6018 25.6129 46.6352 25.5124C46.671 25.4207 46.7254 25.3368 46.7951 25.2657C46.8757 25.186 46.9755 25.1269 47.0855 25.0936C47.22 25.0494 47.3614 25.0282 47.5034 25.031H49.8624V26.2275C49.6804 26.3883 49.4841 26.5334 49.276 26.661Z" fill="white"/>
<path d="M61.1736 20.7896C60.983 20.5758 60.7407 20.4107 60.4682 20.3092C60.1659 20.1915 59.8421 20.134 59.5162 20.1398C59.1623 20.1403 58.8123 20.2114 58.4881 20.3487C58.1613 20.4768 57.8581 20.6552 57.5904 20.877C57.3138 21.1152 57.0686 21.3854 56.8603 21.6815H56.5613V20.4969C56.5627 20.4802 56.5608 20.4633 56.5556 20.4472C56.5498 20.4315 56.5407 20.4171 56.529 20.4049C56.5189 20.3844 56.5022 20.3676 56.4814 20.357C56.4686 20.3458 56.4535 20.3372 56.4371 20.3319C56.4208 20.3265 56.4034 20.3244 56.3862 20.3257H54.6317V28.544L54.6641 28.6066L54.7269 28.6378H56.5575V23.1219C56.8545 22.8015 57.2014 22.528 57.5857 22.311C57.7979 22.1968 58.024 22.1084 58.2587 22.0478C58.4623 21.9888 58.6735 21.9578 58.886 21.9558C59.014 21.9451 59.1428 21.9604 59.2643 22.0007C59.3857 22.0409 59.4972 22.1052 59.5914 22.1895C59.6789 22.2898 59.7455 22.4054 59.7876 22.5301C59.8285 22.6552 59.8437 22.7868 59.8323 22.9176V28.4685C59.8306 28.5 59.8365 28.5315 59.8494 28.5605L59.9123 28.6213C59.9428 28.632 59.975 28.6376 60.0075 28.6378H61.7734L61.7819 28.6213V22.5098C61.7866 22.1782 61.7325 21.8482 61.622 21.5342C61.5242 21.2601 61.3719 21.0072 61.1736 20.7896Z" fill="white"/>
<path d="M70.6457 27.5592C70.1746 27.3379 69.6545 27.2317 69.1311 27.2499H66.9673C66.8517 27.2582 66.737 27.2255 66.6446 27.1579C66.573 27.0704 66.539 26.9597 66.5494 26.8486C66.5481 26.6712 66.564 26.494 66.597 26.3194C66.6268 26.1787 66.6701 26.0409 66.7264 25.908C66.943 25.9301 67.1608 25.9393 67.3785 25.9356C68.0384 25.9538 68.6968 25.8648 69.3263 25.6724C69.7898 25.5258 70.2015 25.2563 70.5143 24.8946C70.7841 24.551 70.926 24.1294 70.917 23.6981V23.4119C70.9263 23.1031 70.8362 22.7991 70.659 22.5421C70.4618 22.2798 70.1792 22.0892 69.8565 22.0009V21.7791H71.5834C71.6311 21.7809 71.6777 21.7643 71.7128 21.7331C71.742 21.6972 71.7587 21.6534 71.7604 21.6079V20.2089H67.3814C66.7124 20.1911 66.0464 20.3022 65.4223 20.5356C64.9222 20.7252 64.4916 21.0538 64.1847 21.4799C63.8966 21.9161 63.7509 22.4261 63.7668 22.9434V23.2839C63.7515 23.7893 63.8974 24.2871 64.1847 24.7096C64.4999 25.1212 64.9289 25.4383 65.4223 25.6245C65.5451 25.6687 65.6707 25.7037 65.7973 25.7386V25.9338C65.5525 26.0052 65.3238 26.1207 65.1233 26.2743C64.9594 26.4106 64.8293 26.5808 64.7425 26.7722C64.653 26.9697 64.6085 27.1835 64.6121 27.399C64.6081 27.5859 64.6426 27.7717 64.7137 27.9456C64.7848 28.1194 64.8911 28.2778 65.0262 28.4115V28.6406C64.7126 28.6826 64.4116 28.788 64.1428 28.9499C63.9126 29.1101 63.7207 29.3164 63.5802 29.5546C63.4506 29.8151 63.3854 30.1012 63.3898 30.3903V30.695C63.3656 31.0448 63.4609 31.3927 63.6611 31.685C63.8613 31.9774 64.1553 32.198 64.4979 32.313C64.9461 32.4667 65.4201 32.5376 65.8954 32.522H69.0683C69.4813 32.5303 69.8929 32.4731 70.2868 32.3526C70.6083 32.2561 70.9038 32.092 71.1521 31.8722C71.3861 31.6673 71.5676 31.4127 71.6824 31.1285C71.8038 30.8267 71.8636 30.5051 71.8585 30.1814V29.6374C71.8663 29.2062 71.7612 28.78 71.5529 28.3986C71.3545 28.0297 71.0356 27.7346 70.6457 27.5592ZM65.6602 23.2812V22.9885C65.6479 22.8137 65.683 22.6389 65.7621 22.4813C65.8412 22.3239 65.9608 22.1889 66.1096 22.0892C66.4892 21.8616 66.9326 21.7535 67.3785 21.78H68.4866C68.5906 21.861 68.6842 21.9537 68.7656 22.0561C68.8563 22.1713 68.9212 22.3036 68.9559 22.4445C69.0012 22.5905 69.023 22.7423 69.0207 22.8946V23.2517C69.0302 23.4249 68.9974 23.5977 68.925 23.7564C68.8525 23.915 68.7425 24.0549 68.6037 24.1647C68.3362 24.3728 67.925 24.4768 67.3662 24.4768C67.0782 24.4817 66.791 24.4451 66.5142 24.3682C66.3061 24.3045 66.1149 24.1981 65.9535 24.0561C65.8617 23.9555 65.7886 23.8403 65.7374 23.7156C65.6811 23.5774 65.6548 23.4296 65.6602 23.2812ZM69.9441 30.1593C69.945 30.2965 69.9231 30.4329 69.8794 30.5634C69.851 30.6805 69.7894 30.7876 69.7013 30.8726C69.6059 30.9506 69.4979 31.0128 69.3815 31.0567C69.2329 31.1111 69.0748 31.1374 68.916 31.134H66.3047C66.1005 31.1415 65.8971 31.1044 65.7097 31.0254C65.5678 30.9705 65.453 30.8651 65.3889 30.7309C65.3209 30.5843 65.2884 30.4247 65.2937 30.2642V29.8298C65.2927 29.6665 65.3197 29.5041 65.3737 29.3493C65.433 29.211 65.5208 29.0857 65.6317 28.9812C65.7189 28.919 65.8151 28.8697 65.9173 28.8348C65.9717 28.8448 66.0267 28.8516 66.082 28.8551H68.9236C69.2977 28.8551 69.5595 28.9177 69.7089 29.064C69.7954 29.1587 69.8614 29.269 69.9031 29.3887C69.9448 29.5083 69.9613 29.6349 69.9517 29.7608L69.9441 30.1593Z" fill="white"/>
<path d="M78.7859 20.5772C78.2117 20.2892 77.5717 20.1455 76.9249 20.1594C76.4171 20.1541 75.9121 20.2319 75.4312 20.3895C74.9918 20.5377 74.5877 20.7699 74.2432 21.0724C73.9057 21.3796 73.6427 21.7552 73.473 22.1723C73.2944 22.6402 73.207 23.1361 73.2151 23.6348V25.355C73.2073 25.8553 73.3001 26.3523 73.4883 26.8184C73.6626 27.2327 73.9318 27.6034 74.2755 27.9027C74.6465 28.2184 75.0845 28.4519 75.5588 28.5865C76.1457 28.7359 76.7512 28.8062 77.358 28.7955C77.7825 28.7975 78.2066 28.7667 78.626 28.7034C78.9811 28.666 79.3318 28.596 79.6732 28.4945C79.884 28.4435 80.0811 28.3494 80.251 28.2184C80.2711 28.2011 80.2879 28.1806 80.3005 28.1576C80.3097 28.1379 80.3149 28.1166 80.3158 28.095V26.7144H80.0302C79.7785 26.8115 79.5214 26.8947 79.26 26.9639C78.987 27.0402 78.7086 27.0974 78.4271 27.1351C78.0863 27.1792 77.7427 27.1995 77.3989 27.1958C77.0412 27.2023 76.6843 27.1608 76.3384 27.0725C76.0607 27.0017 75.8066 26.8629 75.6007 26.6693C75.4565 26.5174 75.3472 26.3376 75.2799 26.1419C75.1998 25.8961 75.1619 25.6393 75.1675 25.3817V25.02H80.3357C80.3631 25.0202 80.3903 25.0152 80.4157 25.0053C80.4292 25.0019 80.4418 24.9959 80.4528 24.9878C80.464 24.9795 80.4734 24.9692 80.4804 24.9574C80.4917 24.9279 80.4975 24.8968 80.4976 24.8654V23.6145C80.5185 22.9672 80.3635 22.3258 80.0482 21.7544C79.7581 21.2492 79.3186 20.8393 78.7859 20.5772ZM78.6108 23.8189H75.159V23.5851C75.159 22.9236 75.3084 22.4533 75.6073 22.1741C75.7857 22.0205 75.9942 21.9031 76.2204 21.829C76.4466 21.7535 76.6861 21.7222 76.9249 21.7369C77.1685 21.7315 77.4116 21.7626 77.6455 21.829C77.8395 21.8849 78.0163 21.9861 78.1605 22.1235C78.3206 22.2853 78.4367 22.4829 78.4985 22.6987C78.5786 22.976 78.6164 23.2632 78.6108 23.551V23.8189Z" fill="white"/>
<path d="M25.3102 24.9031H21.6489V28.4392H25.3102V24.9031Z" fill="#FFE841"/>
<path d="M25.3102 7.22217V24.903H28.9677V7.22217H25.3102Z" fill="#FFE841"/>
<path d="M14.3245 28.4419H10.6633V31.9781H21.6489V28.4419H14.3245Z" fill="#FFE841"/>
<path d="M10.6605 24.9031H6.99921V28.4392H10.6605V24.9031Z" fill="#FFE841"/>
<path d="M6.99921 17.8334V7.22217H3.33795V24.903H6.99921V17.8334Z" fill="#FFE841"/>
<path d="M14.3236 7.2222H25.3103V3.68604H6.99921V7.2222H14.3236Z" fill="#FFE841"/>
<path d="M20.7903 15.3796V18.9204H17.129V24.2247H13.4649V15.3796H20.7903Z" fill="#FFE841"/>
<path d="M17.1262 10.0725H13.4649V13.6087H17.1262V10.0725Z" fill="#FFE841"/>
</svg>
