<svg width="12" height="408" viewBox="0 0 12 408" fill="none" xmlns="http://www.w3.org/2000/svg">
<path d="M0.666667 6C0.666667 8.94552 3.05448 11.3333 6 11.3333C8.94552 11.3333 11.3333 8.94552 11.3333 6C11.3333 3.05448 8.94552 0.666667 6 0.666667C3.05448 0.666667 0.666667 3.05448 0.666667 6ZM0.666667 402C0.666667 404.946 3.05448 407.333 6 407.333C8.94552 407.333 11.3333 404.946 11.3333 402C11.3333 399.054 8.94552 396.667 6 396.667C3.05448 396.667 0.666667 399.054 0.666667 402ZM5 6V402H7V6H5Z" fill="#2C2C2C"/>
</svg>
